<svg version="1.1" id="Layer_1" xmlns="http://www.w3.org/2000/svg" xmlns:xlink="http://www.w3.org/1999/xlink" x="0px" y="0px"
	 width="100%" viewBox="0 0 960 976" enable-background="new 0 0 960 976" xml:space="preserve">
<path fill="#000000" opacity="1.000000" stroke="none" 
	d="
M284.132385,781.358521 
	C285.358337,766.312744 286.506989,751.720764 287.654175,737.128601 
	C289.270020,716.575928 290.912598,696.025269 292.490509,675.469666 
	C293.598206,661.040100 294.572388,646.600281 295.686707,632.171265 
	C297.248260,611.951233 298.917542,591.739624 300.477936,571.519531 
	C301.604279,556.923950 302.594574,542.317810 303.708649,527.721191 
	C304.617950,515.807922 305.620667,503.901794 306.574768,492.081635 
	C314.767029,490.795380 315.018463,490.762512 315.998871,498.266510 
	C318.258698,515.562744 320.209473,532.899231 322.360229,550.210022 
	C324.776306,569.656555 327.277466,589.092529 329.736145,608.533752 
	C331.924072,625.834045 334.107330,643.134949 336.287201,660.436279 
	C337.603149,670.880920 338.908630,681.326904 340.398651,693.205872 
	C347.589020,653.994751 354.513336,616.236572 361.433258,578.477661 
	C361.523041,577.987793 361.572113,577.488953 361.614960,576.992188 
	C362.401398,567.878113 362.400604,567.880005 371.390106,567.878418 
	C379.388641,567.876953 387.387421,567.904419 395.385620,567.850586 
	C398.807098,567.827576 401.546875,567.879272 401.470062,572.760437 
	C401.397339,577.383545 398.830139,577.295959 395.620422,577.267151 
	C387.455841,577.193848 379.273407,577.547241 371.131287,577.110718 
	C366.069824,576.839355 364.303345,578.669617 363.457520,583.528564 
	C358.241608,613.491211 352.724213,643.401367 347.297119,673.327209 
	C345.725616,681.992737 343.934021,690.623901 342.611633,699.326782 
	C341.951019,703.674255 339.147491,704.065674 335.825226,704.192993 
	C331.712524,704.350647 332.136230,701.173767 331.816071,698.634094 
	C328.511017,672.418884 325.207581,646.203369 321.952637,619.981873 
	C319.148376,597.391296 316.429169,574.790161 313.630402,552.198914 
	C311.977844,538.859802 310.243652,525.530884 308.081024,512.188782 
	C306.460785,534.242493 304.873779,556.298767 303.211700,578.349304 
	C301.236908,604.549194 299.202606,630.744568 297.184753,656.941162 
	C295.205383,682.638489 293.260864,708.338501 291.214447,734.030457 
	C289.339905,757.564697 287.263733,781.083191 285.477997,804.623962 
	C285.089417,809.746704 285.302826,814.955872 285.730225,820.084229 
	C285.978546,823.063965 285.165344,824.519348 282.272614,824.903564 
	C279.117706,825.322693 278.904968,823.329407 278.642487,820.928223 
	C275.409698,791.359619 272.019836,761.808167 268.827087,732.235291 
	C265.651703,702.823303 262.734833,673.383240 259.551666,643.972107 
	C257.120117,621.505676 254.368469,599.073975 251.910233,576.610352 
	C249.705521,556.463440 247.780563,536.286072 245.597824,516.136719 
	C243.110275,493.173553 240.464981,470.227600 237.907349,447.272003 
	C237.079376,439.840698 236.311722,432.402649 234.753983,424.857056 
	C232.942932,435.201935 231.141510,445.548523 229.319031,455.891388 
	C223.752716,487.480988 218.155670,519.065186 212.619553,550.660095 
	C210.754166,561.306030 208.984299,571.969360 207.279510,582.642151 
	C206.742599,586.003418 205.439301,588.349609 201.657166,588.350891 
	C190.492615,588.354675 179.328018,588.346436 168.163544,588.314331 
	C167.028534,588.311035 165.764526,588.384155 165.242294,586.860779 
	C166.133301,584.765930 168.033371,585.594177 169.533875,585.578308 
	C177.364700,585.495605 185.228317,585.077148 193.017120,585.645081 
	C198.355743,586.034424 199.848511,583.766663 200.626297,579.160828 
	C204.166779,558.194824 207.921188,537.264771 211.610977,516.323975 
	C216.887543,486.377960 222.181396,456.434967 227.452103,426.487915 
	C228.518463,420.428986 229.568481,414.366150 230.515671,408.287903 
	C230.872528,405.997986 231.651031,404.302734 234.298981,404.935944 
	C236.921722,405.563110 240.679657,404.230621 241.151993,408.879303 
	C242.814835,425.245667 244.554398,441.604370 246.295746,457.962646 
	C248.089249,474.810791 249.907501,491.656311 251.735962,508.500702 
	C253.582993,525.516235 255.462402,542.528259 257.315491,559.543152 
	C259.133026,576.231628 260.947021,592.920532 262.741089,609.611572 
	C264.623077,627.120361 266.437225,644.636597 268.358551,662.141113 
	C270.497528,681.628601 272.755280,701.103088 274.902771,720.589722 
	C276.740997,737.269592 278.488708,753.959412 280.292603,770.643066 
	C281.038605,777.542847 281.826660,784.438049 283.328156,791.374329 
	C283.570282,788.186951 283.812408,784.999573 284.132385,781.358521 
z"/>
<path fill="#000000" opacity="1.000000" stroke="none" 
	d="
M656.014709,620.582275 
	C652.077271,619.059814 650.002686,616.272644 648.893188,612.838013 
	C645.465942,602.228333 645.669189,591.535767 648.781738,580.909119 
	C650.512451,575.000183 655.013428,572.519043 660.856506,572.206299 
	C666.830688,571.886536 671.479980,574.353699 673.510437,580.029785 
	C677.623413,591.527710 677.667603,603.272705 673.129395,614.666870 
	C670.733215,620.683044 665.336487,622.283813 656.014709,620.582275 
M653.169312,596.508911 
	C653.234314,600.324585 652.996399,604.176392 653.445862,607.946167 
	C653.935181,612.050110 656.181091,615.222534 660.644287,615.636719 
	C665.121277,616.052185 667.999512,613.593567 668.839844,609.310669 
	C670.415466,601.279297 670.302917,593.113220 669.030151,585.099670 
	C668.189941,579.809448 665.026733,577.859741 660.275208,578.234741 
	C655.129700,578.640869 653.966003,582.548218 653.385010,586.577881 
	C652.962280,589.510315 653.216675,592.540283 653.169312,596.508911 
z"/>
<path fill="#000000" opacity="1.000000" stroke="none" 
	d="
M612.781372,612.705688 
	C609.470520,597.999756 613.015442,585.742432 623.740662,575.592896 
	C626.431213,573.046753 629.259521,573.275696 633.214111,574.470276 
	C626.998901,580.487427 620.780273,585.916443 618.634827,595.128723 
	C621.679810,591.735352 625.031433,590.391113 628.918701,590.734863 
	C632.750854,591.073730 635.955322,592.592285 638.066101,595.975952 
	C642.626770,603.286743 640.519348,615.441895 634.011230,619.365906 
	C626.398621,623.955933 617.449402,621.295532 612.781372,612.705688 
M630.441833,613.986511 
	C635.520996,608.678345 635.027466,599.717468 629.451965,597.428162 
	C625.962097,595.995300 622.558594,596.194824 619.861206,599.180603 
	C617.512817,601.780090 617.294861,609.513855 619.553772,612.428406 
	C622.327209,616.006775 625.914062,616.228821 630.441833,613.986511 
z"/>
<path fill="#000000" opacity="1.000000" stroke="none" 
	d="
M583.044434,614.125977 
	C587.112427,616.478516 590.816650,616.156067 593.980225,613.371643 
	C596.976868,610.734192 596.739075,607.150513 595.693420,603.640564 
	C594.486328,599.589050 591.192932,598.663879 587.522339,598.364990 
	C585.447998,598.196106 582.824158,598.750427 582.913513,595.370239 
	C582.993042,592.359131 585.402161,592.762756 587.316467,592.652039 
	C590.502258,592.467651 593.232117,591.461609 594.770386,588.487000 
	C596.442749,585.253357 595.649902,582.162170 593.164429,579.851440 
	C590.747925,577.604736 587.672729,577.715149 584.807556,579.238159 
	C583.811768,579.767456 583.024414,580.718018 582.201416,581.536133 
	C580.878479,582.851318 579.539673,583.551453 577.901306,582.024231 
	C576.336609,580.565735 576.669006,579.019714 577.810181,577.586487 
	C581.262390,573.250610 585.982544,572.142151 591.214233,572.621887 
	C595.798035,573.042236 599.617188,574.668518 601.202881,579.514038 
	C602.888000,584.663696 602.414795,589.351013 598.356934,593.301208 
	C597.663452,593.976257 596.924255,594.604309 596.175720,595.281677 
	C603.540161,601.275208 605.117920,609.998352 600.181396,616.410217 
	C595.928650,621.933960 585.732788,623.071899 579.252075,618.525452 
	C577.128174,617.035400 573.399780,615.378174 575.741943,612.080811 
	C578.818665,607.749268 580.533264,612.657776 583.044434,614.125977 
z"/>
<path fill="#000000" opacity="1.000000" stroke="none" 
	d="
M723.350464,619.280640 
	C719.523132,621.329285 717.023499,620.199829 715.168274,616.564575 
	C713.076111,612.465027 710.625122,608.548767 708.261475,604.432983 
	C705.112793,605.743225 704.090515,607.825745 703.991943,610.493286 
	C703.918213,612.487671 703.960632,614.486023 703.911621,616.481628 
	C703.863953,618.423096 703.600769,620.193359 701.007874,620.223633 
	C698.592163,620.251892 697.796326,618.843323 697.792114,616.736450 
	C697.763306,602.427124 697.759705,588.117859 697.729309,573.808533 
	C697.724609,571.605347 698.647949,570.290588 700.951538,570.320862 
	C703.401489,570.353027 703.963318,572.057861 703.943359,574.063843 
	C703.878845,580.548218 703.777649,587.032349 703.655457,593.515930 
	C703.616028,595.607056 702.937378,597.732056 704.225525,600.325684 
	C707.740784,595.972107 711.089417,591.943542 714.299438,587.807373 
	C716.422119,585.072266 718.841980,584.200378 722.391357,585.949585 
	C720.479492,590.027588 717.385803,593.021240 714.717468,596.268738 
	C712.840515,598.552979 712.716675,600.398987 714.299500,602.948120 
	C717.535034,608.158997 720.420044,613.587402 723.350464,619.280640 
z"/>
<path fill="#000000" opacity="1.000000" stroke="none" 
	d="
M732.955078,586.636475 
	C738.771729,583.734863 744.446838,583.388794 749.267578,587.241272 
	C754.420105,591.358765 754.649170,597.487732 754.223816,603.851990 
	C748.701294,604.795410 743.413940,604.180786 738.163391,604.326111 
	C733.306763,604.460510 731.810120,606.848450 733.832092,611.351379 
	C736.092712,616.385925 742.714722,617.268005 747.293274,613.174683 
	C748.630188,611.979431 749.630249,609.216125 752.015259,611.439392 
	C754.582642,613.832703 752.242554,615.717407 750.782837,617.337219 
	C745.583313,623.106628 735.245117,622.612244 730.411072,616.701111 
	C724.936707,610.006836 725.050293,591.483154 732.955078,586.636475 
M737.855408,599.689026 
	C739.510010,599.690552 741.173096,599.797913 742.816956,599.665588 
	C744.667603,599.516663 747.218201,600.304871 747.701233,597.544800 
	C748.153198,594.961609 747.230652,592.630554 744.842590,591.154175 
	C741.016113,588.788452 735.569397,590.381470 733.894470,594.442993 
	C732.660034,597.436218 732.919434,599.734131 737.855408,599.689026 
z"/>
<path fill="#000000" opacity="1.000000" stroke="none" 
	d="
M382.295441,614.916992 
	C386.684235,616.542236 390.166962,615.713379 392.951965,612.400391 
	C394.097839,611.037292 395.156250,609.722900 396.991974,611.404297 
	C398.776611,613.038940 398.070587,614.643921 396.930298,616.266785 
	C391.946198,623.360229 379.049683,623.067200 374.638306,615.513611 
	C370.119141,607.775696 370.505951,599.502930 373.836426,591.527100 
	C376.107330,586.088623 381.736969,583.908569 388.588715,584.797180 
	C394.184662,585.522888 397.222168,588.676147 398.843750,595.424805 
	C399.472229,598.040344 399.503754,600.673889 399.152649,603.856201 
	C392.381287,605.053833 385.399719,603.737549 378.373505,604.627197 
	C377.511353,608.905457 378.304108,612.305054 382.295441,614.916992 
M378.404205,598.234680 
	C381.339325,601.177063 385.004211,599.198364 388.306549,599.640137 
	C389.861359,599.848145 391.946503,600.112549 392.606842,598.095947 
	C393.308990,595.951721 392.885498,593.777405 391.126190,592.138794 
	C388.885834,590.052246 386.245117,589.344238 383.302063,590.321899 
	C379.899109,591.452271 378.235046,593.886108 378.404205,598.234680 
z"/>
<path fill="#000000" opacity="1.000000" stroke="none" 
	d="
M493.845825,617.966187 
	C483.232178,625.315308 471.719940,620.005859 470.762543,607.561890 
	C470.394104,602.772949 470.103699,597.901184 471.846680,593.222168 
	C474.188385,586.935852 478.511810,584.295288 485.970459,584.645020 
	C491.732635,584.915222 495.551178,588.145142 497.241974,594.208618 
	C497.554626,595.329834 497.845581,596.462952 498.048828,597.607971 
	C499.078461,603.408264 498.337402,604.289612 492.415375,604.327271 
	C488.251068,604.353699 484.086456,604.370911 479.922150,604.351440 
	C476.954865,604.337585 476.180542,605.789978 476.772949,608.535706 
	C477.446106,611.656006 478.747406,614.355225 481.919098,615.351013 
	C485.078613,616.342957 488.118408,615.843506 490.818939,613.581360 
	C492.228210,612.400757 493.181610,608.966003 495.842102,611.537476 
	C498.668732,614.269592 495.427460,615.836609 493.845825,617.966187 
M484.494934,590.155151 
	C478.368622,591.132568 476.854706,593.020020 477.433411,599.107239 
	C480.628113,600.202515 483.975433,599.593933 487.261230,599.658447 
	C488.834961,599.689270 490.856201,600.077759 491.518921,597.988953 
	C492.098663,596.161560 491.559753,594.354004 490.438171,592.791687 
	C489.182556,591.042603 487.387604,590.292542 484.494934,590.155151 
z"/>
<path fill="#000000" opacity="1.000000" stroke="none" 
	d="
M463.410339,611.730225 
	C463.433502,613.361084 463.488342,614.526917 463.461121,615.690796 
	C463.417816,617.541016 464.430664,619.994019 461.212646,620.215454 
	C457.707886,620.456421 457.710236,617.955627 457.704742,615.525391 
	C457.694550,611.031372 457.697693,606.537354 457.688202,602.043335 
	C457.685394,600.711914 457.722717,599.376099 457.632080,598.049805 
	C457.270386,592.757629 455.143616,590.239197 451.118896,590.261108 
	C447.229431,590.282288 444.633606,593.129395 444.444580,598.040283 
	C444.252625,603.026978 444.624756,608.046143 444.230591,613.009827 
	C444.032501,615.503967 446.365845,620.081177 441.438202,619.988831 
	C436.643311,619.898865 438.885498,615.368958 438.784943,612.871155 
	C438.470490,605.060791 438.640259,597.229736 438.686646,589.407104 
	C438.696014,587.828613 438.254608,585.878418 440.486877,585.275635 
	C442.584839,584.709106 443.991943,585.656738 444.866089,587.841858 
	C446.050171,587.107483 447.088318,586.319702 448.240662,585.772278 
	C455.967865,582.101746 463.034607,586.287292 463.310028,594.787720 
	C463.487823,600.275146 463.383270,605.771790 463.410339,611.730225 
z"/>
<path fill="#000000" opacity="1.000000" stroke="none" 
	d="
M535.951660,619.429565 
	C534.943909,618.742615 534.215454,618.316895 533.605042,617.761475 
	C532.152893,616.440247 530.124512,615.138489 532.041138,612.867676 
	C533.791321,610.794067 535.445312,611.652832 537.058655,613.341431 
	C538.466370,614.814880 540.285828,615.653442 542.358154,615.854675 
	C545.827393,616.191467 548.433838,614.751099 549.153748,611.400391 
	C549.845398,608.181213 547.463989,606.639893 544.665161,605.861572 
	C542.748230,605.328613 540.759888,605.026794 538.878235,604.397766 
	C533.680542,602.660095 531.199646,598.580139 531.914795,593.184814 
	C532.578796,588.175232 536.018066,585.141907 541.446167,584.698608 
	C545.392029,584.376465 549.081116,584.947327 552.217773,587.578186 
	C553.412964,588.580688 554.489502,589.689819 553.301819,591.368835 
	C552.138855,593.012939 550.712891,593.367249 549.073486,592.029602 
	C547.163818,590.471375 544.978394,589.914612 542.553528,590.120239 
	C540.082520,590.329834 538.518005,591.572571 538.154724,594.069702 
	C537.824890,596.336609 538.765930,598.035278 540.914001,598.799316 
	C543.094360,599.574890 545.347290,600.164429 547.595337,600.728027 
	C552.996948,602.082153 555.573486,605.591797 555.284607,611.320374 
	C555.015442,616.656311 551.597656,620.574829 546.494934,621.190857 
	C542.974182,621.615906 539.528198,621.197510 535.951660,619.429565 
z"/>
<path fill="#000000" opacity="1.000000" stroke="none" 
	d="
M510.681152,584.995117 
	C515.470032,584.354065 519.761841,584.317322 523.494446,587.204590 
	C524.835266,588.241760 526.306519,589.369202 525.151733,591.316956 
	C523.909485,593.412109 522.350769,593.092834 520.556335,591.785583 
	C519.522339,591.032288 518.187256,590.519775 516.917786,590.296509 
	C513.802979,589.748718 510.716736,589.728577 509.791901,593.710083 
	C508.904633,597.530212 511.698486,598.594727 514.493835,599.501709 
	C515.916077,599.963074 517.397156,600.239502 518.839355,600.643433 
	C524.941040,602.352478 527.816711,606.275452 527.065308,611.835083 
	C526.222107,618.073975 522.296326,621.294983 515.706238,621.332764 
	C511.708405,621.355652 508.120026,620.357422 505.156006,617.607605 
	C503.680939,616.239197 501.988831,614.772888 504.057709,612.614685 
	C505.833954,610.761658 507.271271,611.800903 508.718781,613.208923 
	C510.722839,615.158264 513.138794,616.167542 515.974487,615.865356 
	C518.583984,615.587280 520.280640,614.206482 520.748169,611.547852 
	C521.229126,608.813049 520.059387,607.011902 517.456177,606.203247 
	C515.873352,605.711487 514.236755,605.390076 512.619507,605.012695 
	C507.843201,603.898071 504.285980,601.458618 503.788208,596.186462 
	C503.301544,591.032410 505.099670,587.033386 510.681152,584.995117 
z"/>
<path fill="#000000" opacity="1.000000" stroke="none" 
	d="
M406.665649,607.943726 
	C406.665894,595.357971 406.665894,583.262512 406.665894,571.587219 
	C408.630615,570.158325 410.076874,570.707581 411.407990,570.775452 
	C412.871887,572.546692 412.302704,574.449219 412.311005,576.204895 
	C412.363647,587.343384 412.339020,598.482300 412.333771,609.621033 
	C412.332672,611.953064 412.023956,614.308838 415.170807,615.175964 
	C416.612732,615.573303 416.902405,617.116089 416.625458,618.522034 
	C416.286621,620.242554 414.858063,620.205383 413.505585,620.310181 
	C409.231354,620.641235 406.824615,618.842590 406.707886,614.418518 
	C406.655304,612.424744 406.677307,610.428955 406.665649,607.943726 
z"/>
<path fill="#000000" opacity="1.000000" stroke="none" 
	d="
M428.286743,594.999573 
	C428.282715,600.498718 428.257874,605.498169 428.287537,610.497314 
	C428.296204,611.963501 427.994141,613.738892 429.689056,614.460327 
	C431.697021,615.314819 432.607880,616.551697 432.070648,618.704956 
	C431.703125,620.177917 430.472717,620.211060 429.301849,620.270630 
	C426.904999,620.392639 424.486572,620.344849 423.259888,617.811707 
	C422.775940,616.812378 422.648773,615.559875 422.643402,614.421326 
	C422.579468,600.923462 422.575348,587.425415 422.537933,573.927368 
	C422.532990,572.144104 422.569214,570.542236 425.051971,570.567261 
	C427.414795,570.591064 428.276978,571.778809 428.268982,574.002808 
	C428.244385,580.835022 428.276550,587.667419 428.286743,594.999573 
z"/>
</svg>